# xmcd
#
# Track frame offsets:
#        150
#        17757
#        36752
#        57487
#
# Disc length: 1001 seconds
#
# Revision: 1
# Processed by: cddbd v1.5.1PL0 Copyright (c) Steve Scherf et al.
# Submitted via: ExactAudioCopy v0.95a4
#
DISCID=2d03e704
DTITLE=Various Artist - Television Personalities from Japna
DYEAR=1900
DGENRE=
TTITLE0=bridge/windy afternoon
TTITLE1=budgie jacket/sweet loving
TTITLE2=sugar candy mountain/to the daisy
TTITLE3=dida dida doo/I'arrache coeur
EXTD=
EXTT0=
EXTT1=
EXTT2=
EXTT3=
PLAYORDER=
